# xmcd
#
# Track frame offsets:
#	150
#	16591
#	33614
#	49630
#	65917
#	83144
#	100824
#	117891
#	140725
#	158694
#	176306
#
# Disc length: 2600 seconds
#
# Revision: 2
# Processed by: cddbd v1.5.2PL0 Copyright (c) Steve Scherf et al.
# Submitted via: audiograbber 1.83.01
#
DISCID=880a260b
DTITLE=Craig David - Trust Me
DYEAR=2007
DGENRE=R&B
TTITLE0=Hot Stuff (Let's Dance)
TTITLE1=6 Of 1 Thing
TTITLE2=Friday Night
TTITLE3=Awkward
TTITLE4=Just A Reminder
TTITLE5=Officially Yours
TTITLE6=Kinda Girl For Me
TTITLE7=She's On Fire
TTITLE8=Don't Play With Our Love
TTITLE9=Top Of The Hill
TTITLE10=This Is The Girl
EXTD=
EXTT0=
EXTT1=
EXTT2=
EXTT3=
EXTT4=
EXTT5=
EXTT6=
EXTT7=
EXTT8=
EXTT9=
EXTT10=
PLAYORDER=
